<svg xmlns="http://www.w3.org/2000/svg" width="379.201" height="163.986" viewBox="0 0 379.201 163.986">
  <title>DO-logo0</title>
  <g>
    <path d="M79.1,100.539V89.672a31.825,31.825,0,1,0-9.963-62.643L64.114,10.5a5.943,5.943,0,1,0-4.458,1.355L64.7,28.468a31.836,31.836,0,0,0-9.778,6.292L40.4,23.726a8.411,8.411,0,1,0-3.406,3.264L51.759,38.207A31.739,31.739,0,0,0,46.4,48.265H27.95a14.074,14.074,0,1,0,0,4.659H45.291a32.033,32.033,0,0,0-.4,5.017A31.671,31.671,0,0,0,49,73.579L32.911,86.641a19.106,19.106,0,1,0,2.8,3.726L51.6,77.472A31.769,31.769,0,0,0,74.439,89.679v10.675a31.793,31.793,0,1,0,4.659.185Z" fill="#359ea6"/>
    <g>
      <path d="M74.8,79.867H65.779V35.084q8.62-.306,11.035-.306,9.384,0,14.857,5.7t5.472,15.178Q97.143,79.867,74.8,79.867Zm-2.9-39.281V74.06a35.356,35.356,0,0,0,5.074.3A11.985,11.985,0,0,0,87.055,69.55q3.669-4.814,3.668-13.373,0-15.9-14.275-15.9Q75.592,40.28,71.893,40.586Z" fill="#fff"/>
      <path d="M118.39,79.867V35.084H124.5V79.867Z" fill="#808285"/>
      <path d="M132.727,77.819l2.231-5.625a15.234,15.234,0,0,0,4.264,2.095,14.815,14.815,0,0,0,4.571.84,8.252,8.252,0,0,0,5.746-1.957,6.41,6.41,0,0,0,2.171-4.982,7.811,7.811,0,0,0-1.208-4.2q-1.208-1.941-6.067-4.234l-3.607-1.682A14.406,14.406,0,0,1,134.423,53a13.139,13.139,0,0,1-1.819-7.061,10.878,10.878,0,0,1,3.546-8.315,12.838,12.838,0,0,1,9.11-3.3q7.428,0,10.332,2.414l-1.8,5.32a14.028,14.028,0,0,0-3.729-1.713,14.934,14.934,0,0,0-4.646-.825,6.661,6.661,0,0,0-4.906,1.773,6.136,6.136,0,0,0-1.789,4.555,7.419,7.419,0,0,0,.642,3.118,6.507,6.507,0,0,0,1.788,2.353,26.567,26.567,0,0,0,4.693,2.66l3.668,1.743a14.57,14.57,0,0,1,6.435,5.181,14.424,14.424,0,0,1,1.849,7.658,10.924,10.924,0,0,1-4.051,8.559q-4.05,3.516-10.836,3.516A17.926,17.926,0,0,1,132.727,77.819Z" fill="#808285"/>
      <path d="M170.969,40.586V53.028h14.8v5.2h-14.8V74.365h20.3v5.5H164.855V35.084H191.6v5.5Z" fill="#808285"/>
      <path d="M223.822,79.867l-3.087-9.445H204.074l-3.3,9.445h-6.847l18.189-45.394h1.619l16.875,45.394ZM212.634,46.211,205.7,65.928h13.3Z" fill="#808285"/>
      <path d="M233.3,77.819l2.231-5.625a15.234,15.234,0,0,0,4.264,2.095,14.815,14.815,0,0,0,4.571.84,8.263,8.263,0,0,0,5.748-1.957,6.411,6.411,0,0,0,2.169-4.982,7.811,7.811,0,0,0-1.208-4.2q-1.209-1.941-6.067-4.234L241.4,58.071A14.406,14.406,0,0,1,235,53a13.139,13.139,0,0,1-1.818-7.061,10.875,10.875,0,0,1,3.546-8.315,12.835,12.835,0,0,1,9.109-3.3q7.43,0,10.331,2.414l-1.8,5.32a14.1,14.1,0,0,0-3.732-1.713,14.928,14.928,0,0,0-4.645-.825,6.661,6.661,0,0,0-4.906,1.773,6.136,6.136,0,0,0-1.789,4.555,7.419,7.419,0,0,0,.642,3.118,6.507,6.507,0,0,0,1.788,2.353,26.567,26.567,0,0,0,4.693,2.66l3.668,1.743a14.561,14.561,0,0,1,6.434,5.181,14.414,14.414,0,0,1,1.849,7.658,10.922,10.922,0,0,1-4.049,8.559q-4.053,3.516-10.837,3.516A17.926,17.926,0,0,1,233.3,77.819Z" fill="#808285"/>
      <path d="M271.541,40.586V53.028h14.8v5.2h-14.8V74.365h20.3v5.5H265.427V35.084h26.747v5.5Z" fill="#808285"/>
    </g>
    <g>
      <path d="M57.562,131.233q0-9.72,4.876-16.262a15.564,15.564,0,0,1,13.16-6.542q9.323,0,14.291,6.023t4.967,16.781q0,11.037-4.983,17.287T75.6,154.772a15.454,15.454,0,0,1-13.252-6.6Q57.561,141.566,57.562,131.233Zm6.42,0a25.006,25.006,0,0,0,3.041,12.87q3.042,5.167,8.575,5.166a10.9,10.9,0,0,0,9.553-4.738q3.285-4.737,3.286-13.3,0-17.3-12.839-17.3a9.632,9.632,0,0,0-8.651,4.646Q63.982,123.225,63.982,131.233Z" fill="#fff"/>
      <path d="M146.173,154.619l-23.14-32.739v32.128h-5.809V109.224h2.446L142.2,140.191V109.224h5.808v45.4Z" fill="#808285"/>
      <path d="M173.5,114.727v39.281h-6.114V114.727H153.143v-5.5h35.246v5.5Z" fill="#808285"/>
      <path d="M187.931,131.233q0-9.72,4.875-16.262a15.567,15.567,0,0,1,13.161-6.542q9.322,0,14.291,6.023t4.967,16.781q0,11.037-4.983,17.287t-14.275,6.252a15.453,15.453,0,0,1-13.252-6.6Q187.93,141.566,187.931,131.233Zm6.42,0a25.006,25.006,0,0,0,3.041,12.87q3.041,5.167,8.575,5.166a10.9,10.9,0,0,0,9.553-4.738q3.285-4.737,3.285-13.3,0-17.3-12.838-17.3a9.635,9.635,0,0,0-8.652,4.646Q194.349,123.225,194.351,131.233Z" fill="#808285"/>
      <path d="M232.256,154.008V109.224h6.114v39.281h20.237v5.5Z" fill="#808285"/>
      <path d="M261.816,131.233q0-9.72,4.877-16.262a15.561,15.561,0,0,1,13.159-6.542q9.323,0,14.29,6.023t4.967,16.781q0,11.037-4.981,17.287t-14.276,6.252a15.45,15.45,0,0,1-13.251-6.6Q261.816,141.566,261.816,131.233Zm6.419,0a25.006,25.006,0,0,0,3.043,12.87q3.039,5.167,8.574,5.166a10.9,10.9,0,0,0,9.552-4.738q3.285-4.737,3.285-13.3,0-17.3-12.837-17.3a9.635,9.635,0,0,0-8.652,4.646Q268.238,123.225,268.235,131.233Z" fill="#808285"/>
      <path d="M337.168,112.342l-2.537,5.044a15.237,15.237,0,0,0-9.049-3.423,13.586,13.586,0,0,0-11.095,4.952q-4.067,4.951-4.067,13.114,0,7.764,3.989,12.5a13.459,13.459,0,0,0,10.867,4.738,10.9,10.9,0,0,0,7.919-2.934V135.85h-6.206v-5.2h12.319v19.5a18.344,18.344,0,0,1-6.816,3.348,30.461,30.461,0,0,1-8.5,1.268q-9.264,0-14.628-6.282T304,131.784q0-10.392,5.885-16.859t15.88-6.465Q332.766,108.46,337.168,112.342Z" fill="#808285"/>
      <path d="M364.833,133.954v20.054H358.72V133.954l-14.429-24.73h6.3l11.158,19.565L372.9,109.224h6.3Z" fill="#808285"/>
    </g>
  </g>
</svg>
